{
  "accessors": [
    {
      "bufferView": 2,
      "componentType": 5126,
      "count": 771,
      "max": [
        43.87334442138672,
        21.904075622558594,
        223.69705200195313
      ],
      "min": [
        -43.87334442138672,
        -21.904075622558594,
        -35.597660064697266
      ],
      "type": "VEC3"
    },
    {
      "bufferView": 2,
      "byteOffset": 9252,
      "componentType": 5126,
      "count": 771,
      "max": [
        0.997086763381958,
        0.9973289370536804,
        1.0
      ],
      "min": [
        -0.9972975254058838,
        -0.9973289370536804,
        -1.0
      ],
      "type": "VEC3"
    },
    {
      "bufferView": 3,
      "componentType": 5126,
      "count": 771,
      "max": [
        0.9999335408210754,
        0.9999887347221375,
        0.9999800324440002,
        1.0
      ],
      "min": [
        -0.9919347167015076,
        -0.999768853187561,
        -0.9999800324440002,
        -1.0
      ],
      "type": "VEC4"
    },
    {
      "bufferView": 1,
      "componentType": 5126,
      "count": 771,
      "max": [
        0.9846276640892029,
        1.0009490251541138
      ],
      "min": [
        0.34777209162712097,
        0.035862162709236145
      ],
      "type": "VEC2"
    },
    {
      "bufferView": 2,
      "byteOffset": 18504,
      "componentType": 5126,
      "count": 771,
      "max": [
        0.0,
        0.0,
        0.0
      ],
      "min": [
        0.0,
        0.0,
        -82.81681823730469
      ],
      "type": "VEC3"
    },
    {
      "bufferView": 2,
      "byteOffset": 27756,
      "componentType": 5126,
      "count": 771,
      "max": [
        0.0,
        0.0,
        0.0
      ],
      "min": [
        0.0,
        0.0,
        0.0
      ],
      "type": "VEC3"
    },
    {
      "bufferView": 2,
      "byteOffset": 37008,
      "componentType": 5126,
      "count": 771,
      "max": [
        0.0,
        0.0,
        0.0
      ],
      "min": [
        0.0,
        0.0,
        0.0
      ],
      "type": "VEC3"
    },
    {
      "bufferView": 0,
      "componentType": 5125,
      "count": 3054,
      "type": "SCALAR"
    },
    {
      "bufferView": 2,
      "byteOffset": 46260,
      "componentType": 5126,
      "count": 152,
      "max": [
        13.80969524383545,
        14.02273178100586,
        131.95919799804688
      ],
      "min": [
        -13.80969524383545,
        -14.02273178100586,
        36.002647399902344
      ],
      "type": "VEC3"
    },
    {
      "bufferView": 2,
      "byteOffset": 48084,
      "componentType": 5126,
      "count": 152,
      "max": [
        0.9931530952453613,
        0.9981297254562378,
        0.018759213387966156
      ],
      "min": [
        -0.9931530952453613,
        -0.9981297254562378,
        -0.018759211525321007
      ],
      "type": "VEC3"
    },
    {
      "bufferView": 3,
      "byteOffset": 12336,
      "componentType": 5126,
      "count": 152,
      "max": [
        0.9982777833938599,
        0.9932997822761536,
        0.15932585299015045,
        1.0
      ],
      "min": [
        -0.9982772469520569,
        -0.9932997822761536,
        -0.15922237932682037,
        1.0
      ],
      "type": "VEC4"
    },
    {
      "bufferView": 1,
      "byteOffset": 6168,
      "componentType": 5126,
      "count": 152,
      "max": [
        0.34545019268989563,
        0.9941495060920715
      ],
      "min": [
        0.00220356322824955,
        0.12407417595386505
      ],
      "type": "VEC2"
    },
    {
      "bufferView": 2,
      "byteOffset": 49908,
      "componentType": 5126,
      "count": 152,
      "max": [
        0.0,
        0.0,
        0.0
      ],
      "min": [
        0.0,
        0.0,
        0.0
      ],
      "type": "VEC3"
    },
    {
      "bufferView": 2,
      "byteOffset": 51732,
      "componentType": 5126,
      "count": 152,
      "max": [
        0.0,
        0.0,
        0.0
      ],
      "min": [
        0.0,
        0.0,
        0.0
      ],
      "type": "VEC3"
    },
    {
      "bufferView": 2,
      "byteOffset": 53556,
      "componentType": 5126,
      "count": 152,
      "max": [
        0.0,
        0.0,
        0.0
      ],
      "min": [
        0.0,
        0.0,
        0.0
      ],
      "type": "VEC3"
    },
    {
      "bufferView": 0,
      "byteOffset": 12216,
      "componentType": 5125,
      "count": 432,
      "type": "SCALAR"
    },
    {
      "bufferView": 2,
      "byteOffset": 55380,
      "componentType": 5126,
      "count": 74,
      "max": [
        12.0,
        11.817693710327148,
        131.15480041503906
      ],
      "min": [
        -12.0,
        -11.817693710327148,
        36.002647399902344
      ],
      "type": "VEC3"
    },
    {
      "bufferView": 2,
      "byteOffset": 56268,
      "componentType": 5126,
      "count": 74,
      "max": [
        0.9982643723487854,
        0.9922032952308655,
        0.5202836990356445
      ],
      "min": [
        -0.9982643723487854,
        -0.9932871460914612,
        -0.520283579826355
      ],
      "type": "VEC3"
    },
    {
      "bufferView": 3,
      "byteOffset": 14768,
      "componentType": 5126,
      "count": 74,
      "max": [
        0.9932998418807983,
        0.9982789754867554,
        0.7889441847801208,
        1.0
      ],
      "min": [
        -0.9933146238327026,
        -0.9983105659484863,
        -0.614830732345581,
        -1.0
      ],
      "type": "VEC4"
    },
    {
      "bufferView": 1,
      "byteOffset": 7384,
      "componentType": 5126,
      "count": 74,
      "max": [
        0.6741151213645935,
        0.3258410692214966
      ],
      "min": [
        0.12474817037582397,
        0.0066705122590065
      ],
      "type": "VEC2"
    },
    {
      "bufferView": 2,
      "byteOffset": 57156,
      "componentType": 5126,
      "count": 74,
      "max": [
        0.0,
        0.0,
        0.0
      ],
      "min": [
        0.0,
        0.0,
        -85.03793334960938
      ],
      "type": "VEC3"
    },
    {
      "bufferView": 2,
      "byteOffset": 58044,
      "componentType": 5126,
      "count": 74,
      "max": [
        0.6300801038742065,
        0.6630593538284302,
        0.6635315418243408
      ],
      "min": [
        -0.4959055185317993,
        -0.5691969394683838,
        -0.6635315418243408
      ],
      "type": "VEC3"
    },
    {
      "bufferView": 2,
      "byteOffset": 58932,
      "componentType": 5126,
      "count": 74,
      "max": [
        0.0,
        0.0,
        0.0
      ],
      "min": [
        0.0,
        0.0,
        0.0
      ],
      "type": "VEC3"
    },
    {
      "bufferView": 0,
      "byteOffset": 13944,
      "componentType": 5125,
      "count": 204,
      "type": "SCALAR"
    },
    {
      "bufferView": 4,
      "componentType": 5126,
      "count": 60,
      "max": [
        1.9666666984558105
      ],
      "min": [
        0.0
      ],
      "type": "SCALAR"
    },
    {
      "bufferView": 4,
      "byteOffset": 240,
      "componentType": 5126,
      "count": 60,
      "max": [
        1.0
      ],
      "min": [
        0.0
      ],
      "type": "SCALAR"
    },
    {
      "bufferView": 4,
      "byteOffset": 480,
      "componentType": 5126,
      "count": 60,
      "max": [
        1.9666666984558105
      ],
      "min": [
        0.0
      ],
      "type": "SCALAR"
    },
    {
      "bufferView": 4,
      "byteOffset": 720,
      "componentType": 5126,
      "count": 60,
      "max": [
        1.0
      ],
      "min": [
        0.0
      ],
      "type": "SCALAR"
    },
    {
      "bufferView": 4,
      "byteOffset": 960,
      "componentType": 5126,
      "count": 60,
      "max": [
        1.9666666984558105
      ],
      "min": [
        0.0
      ],
      "type": "SCALAR"
    },
    {
      "bufferView": 4,
      "byteOffset": 1200,
      "componentType": 5126,
      "count": 60,
      "max": [
        1.0
      ],
      "min": [
        0.0
      ],
      "type": "SCALAR"
    }
  ],
  "animations": [
    {
      "channels": [
        {
          "sampler": 0,
          "target": {
            "node": 5,
            "path": "weights"
          }
        },
        {
          "sampler": 1,
          "target": {
            "node": 6,
            "path": "weights"
          }
        },
        {
          "sampler": 2,
          "target": {
            "node": 7,
            "path": "weights"
          }
        }
      ],
      "name": "Take 001",
      "samplers": [
        {
          "input": 24,
          "interpolation": "LINEAR",
          "output": 25
        },
        {
          "input": 26,
          "interpolation": "LINEAR",
          "output": 27
        },
        {
          "input": 28,
          "interpolation": "LINEAR",
          "output": 29
        }
      ]
    }
  ],
  "asset": {
    "extras": {
      "author": "CrazyMoralFreak (https://sketchfab.com/crazymoralfreak)",
      "license": "CC-BY-4.0 (http://creativecommons.org/licenses/by/4.0/)",
      "source": "https://sketchfab.com/3d-models/hypodermic-9cd2545c878b445b83b79ed668e4570e",
      "title": "Hypodermic"
    },
    "generator": "Sketchfab-12.66.0",
    "version": "2.0"
  },
  "bufferViews": [
    {
      "buffer": 0,
      "byteLength": 14760,
      "name": "floatBufferViews",
      "target": 34963
    },
    {
      "buffer": 0,
      "byteLength": 7976,
      "byteOffset": 14760,
      "byteStride": 8,
      "name": "floatBufferViews",
      "target": 34962
    },
    {
      "buffer": 0,
      "byteLength": 59820,
      "byteOffset": 22736,
      "byteStride": 12,
      "name": "floatBufferViews",
      "target": 34962
    },
    {
      "buffer": 0,
      "byteLength": 15952,
      "byteOffset": 82556,
      "byteStride": 16,
      "name": "floatBufferViews",
      "target": 34962
    },
    {
      "buffer": 0,
      "byteLength": 1440,
      "byteOffset": 98508,
      "name": "floatBufferViews"
    }
  ],
  "buffers": [
    {
      "byteLength": 99948,
      "uri": "scene.bin"
    }
  ],
  "images": [
    {
      "uri": "textures/02_-_Default_baseColor.png"
    },
    {
      "uri": "textures/02_-_Default_metallicRoughness.png"
    },
    {
      "uri": "textures/02_-_Default_normal.png"
    },
    {
      "uri": "textures/01_-_Default_baseColor.png"
    },
    {
      "uri": "textures/01_-_Default_metallicRoughness.png"
    },
    {
      "uri": "textures/01_-_Default_normal.png"
    },
    {
      "uri": "textures/03_-_Default_baseColor.png"
    },
    {
      "uri": "textures/03_-_Default_metallicRoughness.png"
    },
    {
      "uri": "textures/03_-_Default_emissive.png"
    },
    {
      "uri": "textures/03_-_Default_normal.png"
    }
  ],
  "materials": [
    {
      "doubleSided": true,
      "name": "02_-_Default",
      "normalTexture": {
        "index": 2
      },
      "occlusionTexture": {
        "index": 1
      },
      "pbrMetallicRoughness": {
        "baseColorTexture": {
          "index": 0
        },
        "metallicRoughnessTexture": {
          "index": 1
        }
      }
    },
    {
      "alphaMode": "BLEND",
      "doubleSided": true,
      "name": "01_-_Default",
      "normalTexture": {
        "index": 5
      },
      "occlusionTexture": {
        "index": 4
      },
      "pbrMetallicRoughness": {
        "baseColorFactor": [
          1.0,
          1.0,
          1.0,
          0.10666665741891564
        ],
        "baseColorTexture": {
          "index": 3
        },
        "metallicRoughnessTexture": {
          "index": 4
        }
      }
    },
    {
      "alphaMode": "BLEND",
      "doubleSided": true,
      "emissiveFactor": [
        1.0,
        1.0,
        1.0
      ],
      "emissiveTexture": {
        "index": 8
      },
      "name": "03_-_Default",
      "normalTexture": {
        "index": 9
      },
      "occlusionTexture": {
        "index": 7
      },
      "pbrMetallicRoughness": {
        "baseColorFactor": [
          1.0,
          1.0,
          1.0,
          0.6945454452977036
        ],
        "baseColorTexture": {
          "index": 6
        },
        "metallicRoughnessTexture": {
          "index": 7
        }
      }
    }
  ],
  "meshes": [
    {
      "name": "0",
      "primitives": [
        {
          "attributes": {
            "NORMAL": 1,
            "POSITION": 0,
            "TANGENT": 2,
            "TEXCOORD_0": 3
          },
          "indices": 7,
          "material": 0,
          "mode": 4,
          "targets": [
            {
              "NORMAL": 5,
              "POSITION": 4,
              "TANGENT": 6
            }
          ]
        }
      ],
      "weights": [
        0.0
      ]
    },
    {
      "name": "1",
      "primitives": [
        {
          "attributes": {
            "NORMAL": 9,
            "POSITION": 8,
            "TANGENT": 10,
            "TEXCOORD_0": 11
          },
          "indices": 15,
          "material": 1,
          "mode": 4,
          "targets": [
            {
              "NORMAL": 13,
              "POSITION": 12,
              "TANGENT": 14
            }
          ]
        }
      ],
      "weights": [
        0.0
      ]
    },
    {
      "name": "2",
      "primitives": [
        {
          "attributes": {
            "NORMAL": 17,
            "POSITION": 16,
            "TANGENT": 18,
            "TEXCOORD_0": 19
          },
          "indices": 23,
          "material": 2,
          "mode": 4,
          "targets": [
            {
              "NORMAL": 21,
              "POSITION": 20,
              "TANGENT": 22
            }
          ]
        }
      ],
      "weights": [
        0.0
      ]
    }
  ],
  "nodes": [
    {
      "children": [
        1
      ],
      "matrix": [
        -0.9902037978172302,
        -0.13962985575199127,
        -3.100405615619001e-17,
        0.0,
        0.0,
        2.220446049250313e-16,
        -1.0,
        0.0,
        0.13962985575199127,
        -0.9902037978172302,
        -2.1986941108159246e-16,
        0.0,
        18.057971954345703,
        -257.3858337402344,
        -5.715113576615014e-14,
        1.0
      ],
      "name": "Sketchfab_model"
    },
    {
      "children": [
        2
      ],
      "matrix": [
        1.0,
        0.0,
        0.0,
        0.0,
        0.0,
        -1.0,
        0.0,
        0.0,
        0.0,
        0.0,
        -1.0,
        0.0,
        0.0,
        0.0,
        0.0,
        1.0
      ],
      "name": "df3677aeae3a4dd0aab0180852f737c4.fbx"
    },
    {
      "children": [
        3
      ],
      "name": "Object_2"
    },
    {
      "children": [
        4
      ],
      "name": "RootNode"
    },
    {
      "children": [
        5,
        6,
        7
      ],
      "name": "hypodermic",
      "translation": [
        0.0,
        0.0,
        35.27667236328125
      ]
    },
    {
      "mesh": 0,
      "name": "0"
    },
    {
      "mesh": 1,
      "name": "1"
    },
    {
      "mesh": 2,
      "name": "2"
    }
  ],
  "samplers": [
    {
      "magFilter": 9729,
      "minFilter": 9987,
      "wrapS": 10497,
      "wrapT": 10497
    }
  ],
  "scene": 0,
  "scenes": [
    {
      "name": "Sketchfab_Scene",
      "nodes": [
        0
      ]
    }
  ],
  "textures": [
    {
      "sampler": 0,
      "source": 0
    },
    {
      "sampler": 0,
      "source": 1
    },
    {
      "sampler": 0,
      "source": 2
    },
    {
      "sampler": 0,
      "source": 3
    },
    {
      "sampler": 0,
      "source": 4
    },
    {
      "sampler": 0,
      "source": 5
    },
    {
      "sampler": 0,
      "source": 6
    },
    {
      "sampler": 0,
      "source": 7
    },
    {
      "sampler": 0,
      "source": 8
    },
    {
      "sampler": 0,
      "source": 9
    }
  ]
}
